<!DOCTYPE svg PUBLIC "-//W3C//DTD SVG 20010904//EN" "http://www.w3.org/TR/2001/REC-SVG-20010904/DTD/svg10.dtd">
<svg version="1.0" xmlns="http://www.w3.org/2000/svg" width="61px" height="67px" viewBox="0 0 610 670" preserveAspectRatio="xMidYMid meet">
<g id="layer101" fill="#41636d" stroke="none">
 <path d="M213 652 c-106 -38 -168 -104 -199 -211 -40 -136 36 -292 171 -352 69 -30 171 -30 241 0 190 83 240 343 93 490 -76 76 -208 108 -306 73z m169 -32 c21 -6 57 -25 80 -43 131 -100 144 -282 29 -397 -106 -106 -266 -106 -372 0 -193 193 -1 513 263 440z"/>
 <path d="M285 390 c-6 -10 95 -194 103 -186 2 3 -3 24 -13 48 l-17 43 36 -34 c20 -19 36 -31 36 -27 0 4 -25 44 -56 87 -52 74 -75 92 -89 69z"/>
 <path d="M527 328 c-11 -82 -103 -174 -185 -185 -50 -7 -56 -23 -9 -23 98 1 217 121 217 220 0 45 -17 36 -23 -12z"/>
 <path d="M55 139 c-8 -12 23 -49 42 -49 18 0 17 25 -3 44 -18 19 -30 20 -39 5z"/>
 <path d="M516 134 c-20 -19 -21 -44 -3 -44 19 0 50 37 42 49 -9 15 -21 14 -39 -5z"/>
 <path d="M272 28 c2 -18 10 -23 33 -23 23 0 31 5 33 23 3 19 -1 22 -33 22 -32 0 -36 -3 -33 -22z"/>
 </g>
<g id="layer102" fill="#0094d1" stroke="none">
 <path d="M285 390 c-6 -10 95 -194 103 -186 2 3 -3 24 -13 48 l-17 43 36 -34 c20 -19 36 -31 36 -27 0 4 -25 44 -56 87 -52 74 -75 92 -89 69z"/>
 <path d="M527 328 c-11 -82 -103 -174 -185 -185 -50 -7 -56 -23 -9 -23 98 1 217 121 217 220 0 45 -17 36 -23 -12z"/>
 </g>
<g id="layer103" fill="#83949a" stroke="none">
 <path d="M527 328 c-11 -82 -103 -174 -185 -185 -50 -7 -56 -23 -9 -23 98 1 217 121 217 220 0 45 -17 36 -23 -12z"/>
 </g>

</svg>