<!DOCTYPE svg PUBLIC "-//W3C//DTD SVG 20010904//EN" "http://www.w3.org/TR/2001/REC-SVG-20010904/DTD/svg10.dtd">
<svg version="1.0" xmlns="http://www.w3.org/2000/svg" width="600px" height="500px" viewBox="0 0 6000 5000" preserveAspectRatio="xMidYMid meet">
<g id="layer101" fill="#41636d" stroke="none">
 <path d="M2755 4531 c-297 -65 -531 -212 -722 -456 -100 -128 -166 -265 -216 -450 -22 -80 -22 -83 -22 -1125 0 -1042 0 -1045 22 -1125 26 -96 57 -184 85 -239 178 -356 487 -594 870 -671 116 -23 344 -20 469 6 429 88 783 409 912 824 54 172 52 132 52 1205 0 1073 2 1033 -52 1205 -129 415 -483 736 -912 824 -130 27 -366 28 -486 2z m350 -241 c117 -17 196 -40 294 -86 116 -55 197 -112 282 -200 140 -147 216 -296 254 -503 23 -125 23 -1877 0 -2002 -38 -207 -114 -356 -254 -503 -263 -274 -669 -365 -1021 -230 -343 133 -564 420 -610 794 -14 114 -14 1766 0 1880 58 468 393 799 865 854 61 7 122 5 190 -4z"/>
 <path d="M2907 3514 c-46 -67 -76 -121 -73 -130 5 -12 32 -14 168 -12 148 3 163 5 163 21 0 25 -147 237 -165 237 -8 0 -50 -52 -93 -116z m156 -19 l58 -85 -121 0 -121 0 58 85 c32 46 60 84 63 85 3 0 31 -38 63 -85z"/>
 <path d="M2952 3304 c-15 -10 -22 -25 -22 -49 0 -63 78 -88 125 -40 30 29 31 45 4 79 -24 30 -72 35 -107 10z m69 -24 c24 -14 24 -36 0 -50 -38 -20 -74 16 -45 45 18 18 20 18 45 5z"/>
 <path d="M2834 3126 c-7 -19 146 -245 166 -245 20 -1 173 226 166 244 -8 22 -324 22 -332 1z m229 -111 c-32 -46 -60 -84 -63 -84 -3 0 -31 38 -62 84 l-56 85 119 0 120 0 -58 -85z"/>
 <path d="M2929 2063 c-58 -36 -59 -42 -59 -390 0 -348 1 -351 59 -390 62 -42 141 -21 179 46 21 37 22 50 22 340 0 335 -3 355 -62 391 -40 24 -103 26 -139 3z"/>
 </g>

</svg>